<svg aria-hidden="true" style="position: absolute; width: 0; height: 0; overflow: hidden;" version="1.1" xmlns="http://www.w3.org/2000/svg" xmlns:xlink="http://www.w3.org/1999/xlink">
<defs>
<symbol id="icon-logo" viewBox="0 0 170 32">
<path fill="#fff" style="fill: var(--color1, #fff)" d="M13.721 31.592c-2.816 0-5.264-0.545-7.344-1.636-2.055-1.091-3.628-2.588-4.719-4.49-1.091-1.928-1.636-4.084-1.636-6.469 0-2.309 0.609-4.376 1.827-6.203 1.218-1.852 2.879-3.285 4.985-4.3 2.106-1.040 4.452-1.56 7.040-1.56 1.192 0 2.41 0.114 3.653 0.343 1.243 0.203 2.22 0.457 2.93 0.761 0.203 0.101 0.33 0.203 0.381 0.304s0.089 0.292 0.114 0.571l0.304 4.985c0 0.101-0.063 0.165-0.19 0.19s-0.216 0-0.266-0.076c-0.888-1.928-2.055-3.425-3.501-4.49-1.446-1.091-3.12-1.636-5.023-1.636-2.461 0-4.376 0.875-5.746 2.626-1.37 1.725-2.055 4.085-2.055 7.078 0 2.613 0.457 4.922 1.37 6.926s2.156 3.552 3.729 4.643c1.598 1.091 3.4 1.636 5.404 1.636 0.913 0 1.611-0.127 2.093-0.381 0.482-0.279 0.812-0.723 0.989-1.332 0.203-0.634 0.304-1.547 0.304-2.74 0-1.243-0.114-2.144-0.343-2.702s-0.647-0.926-1.256-1.104c-0.609-0.178-1.586-0.266-2.93-0.266-0.152 0-0.228-0.101-0.228-0.304 0-0.076 0.013-0.14 0.038-0.19 0.051-0.076 0.101-0.114 0.152-0.114 2.106 0.127 3.856 0.19 5.251 0.19 1.319 0 2.689-0.038 4.11-0.114 0.101 0 0.165 0.089 0.19 0.266s-0.013 0.266-0.114 0.266c-0.406-0.025-0.66 0.076-0.761 0.304s-0.152 0.748-0.152 1.56v2.588c0 1.142 0.038 1.941 0.114 2.397s0.114 0.774 0.114 0.951c0 0.152-0.025 0.254-0.076 0.304-0.025 0.051-0.114 0.101-0.266 0.152-3.247 0.71-6.076 1.066-8.486 1.066zM46.051 25.085c0.051-0.051 0.114-0.076 0.19-0.076s0.152 0.025 0.228 0.076c0.076 0.025 0.102 0.051 0.076 0.076-0.254 1.649-0.381 3.45-0.381 5.404 0 0.203-0.038 0.355-0.114 0.457-0.076 0.076-0.228 0.114-0.457 0.114h-17.353c-0.101 0-0.152-0.076-0.152-0.228s0.038-0.228 0.114-0.228c0.761 0 1.307-0.063 1.636-0.19 0.355-0.127 0.584-0.368 0.685-0.723 0.127-0.355 0.19-0.926 0.19-1.712v-17.619c0-0.761-0.063-1.319-0.19-1.674s-0.368-0.596-0.723-0.723c-0.355-0.152-0.888-0.228-1.598-0.228-0.076 0-0.127-0.076-0.152-0.228 0-0.152 0.025-0.228 0.076-0.228h16.401c0.203 0 0.304 0.114 0.304 0.343l0.076 5.023c0 0.076-0.076 0.114-0.228 0.114-0.127 0-0.203-0.025-0.228-0.076-0.431-1.421-1.218-2.537-2.359-3.349-1.116-0.837-2.448-1.256-3.996-1.256h-0.723c-0.786 0-1.357 0.063-1.712 0.19-0.33 0.101-0.545 0.304-0.647 0.609s-0.165 0.812-0.19 1.522v7.763h4.757c1.294 0 2.245-0.228 2.854-0.685s0.913-1.192 0.913-2.207c0-0.101 0.089-0.152 0.266-0.152s0.266 0.063 0.266 0.19l-0.038 2.093c-0.025 0.304-0.038 0.736-0.038 1.294 0 0.812 0.013 1.421 0.038 1.827l0.038 2.055c0 0.127-0.076 0.19-0.228 0.19-0.076 0-0.152-0.013-0.228-0.038-0.051-0.051-0.076-0.101-0.076-0.152 0-1.091-0.343-1.915-1.027-2.474-0.66-0.584-1.598-0.875-2.816-0.875h-4.681v8.6c0 1.015 0.152 1.674 0.457 1.979 0.33 0.304 1.002 0.457 2.017 0.457h1.066c1.649 0 3.158-0.469 4.528-1.408 1.37-0.964 2.423-2.245 3.159-3.843zM76.162 30.678c0.076 0 0.114 0.076 0.114 0.228 0.025 0.152-0.013 0.228-0.114 0.228h-6.241c-0.609 0-1.674-1.015-3.197-3.044-1.497-2.055-3.311-5.137-5.442-9.247-0.71 0.178-1.497 0.266-2.359 0.266-0.127 0-0.292-0.025-0.495-0.076v9.019c-0.025 0.736 0.025 1.294 0.152 1.674 0.152 0.355 0.406 0.609 0.761 0.761 0.381 0.127 0.951 0.19 1.712 0.19 0.102 0 0.152 0.076 0.152 0.228 0.025 0.152-0.013 0.228-0.114 0.228-0.863 0-1.522-0.013-1.979-0.038l-2.816-0.038-2.854 0.038c-0.507 0.025-1.192 0.038-2.055 0.038-0.101 0-0.165-0.076-0.19-0.228 0-0.152 0.051-0.228 0.152-0.228 0.837 0 1.459-0.063 1.865-0.19 0.406-0.152 0.672-0.406 0.799-0.761 0.152-0.381 0.241-0.939 0.266-1.674v-17.619c0-0.761-0.076-1.319-0.228-1.674-0.127-0.355-0.381-0.596-0.761-0.723-0.381-0.152-0.964-0.228-1.751-0.228-0.101 0-0.152-0.076-0.152-0.228s0.051-0.228 0.152-0.228l2.017 0.038c1.116 0.051 2.030 0.076 2.74 0.076 0.863 0 1.801-0.051 2.816-0.152 0.812-0.051 1.345-0.076 1.598-0.076 2.562 0 4.478 0.419 5.746 1.256 1.294 0.837 1.941 2.004 1.941 3.501 0 1.091-0.368 2.144-1.104 3.159-0.71 1.015-1.662 1.865-2.854 2.55 1.979 3.273 3.653 5.848 5.023 7.725 1.395 1.852 2.613 3.197 3.653 4.034 1.066 0.812 2.080 1.218 3.044 1.218zM58.429 17.968c0.304 0.076 0.672 0.114 1.104 0.114 1.674 0 2.854-0.368 3.539-1.104 0.71-0.736 1.065-1.966 1.065-3.691 0-1.801-0.355-3.12-1.066-3.958-0.685-0.863-1.535-1.294-2.55-1.294-0.685 0-1.154 0.051-1.408 0.152-0.254 0.076-0.431 0.279-0.533 0.609-0.076 0.304-0.127 0.875-0.152 1.712v7.459zM79.264 31.135c-0.051 0-0.076-0.076-0.076-0.228s0.025-0.228 0.076-0.228c0.787 0 1.345-0.063 1.674-0.19 0.355-0.127 0.596-0.368 0.723-0.723s0.19-0.926 0.19-1.712v-17.619c0-0.736-0.076-1.281-0.228-1.636-0.127-0.381-0.368-0.634-0.723-0.761-0.355-0.152-0.901-0.228-1.636-0.228-0.051 0-0.089-0.076-0.114-0.228 0-0.152 0.038-0.228 0.114-0.228l1.903 0.038c1.116 0.051 2.017 0.076 2.702 0.076 0.761 0 1.725-0.025 2.893-0.076l1.865-0.038c0.050 0 0.076 0.076 0.076 0.228s-0.026 0.228-0.076 0.228c-0.761 0-1.32 0.076-1.674 0.228s-0.597 0.406-0.723 0.761c-0.101 0.355-0.165 0.926-0.19 1.712v17.543c0 0.761 0.063 1.319 0.19 1.674 0.152 0.355 0.406 0.609 0.761 0.761 0.355 0.127 0.9 0.19 1.636 0.19 0.050 0 0.076 0.076 0.076 0.228s-0.026 0.228-0.076 0.228c-0.787 0-1.421-0.013-1.903-0.038l-2.778-0.038-2.702 0.038c-0.482 0.025-1.142 0.038-1.979 0.038zM81.472 5.335c-0.101 0-0.178-0.051-0.228-0.152-0.051-0.127-0.038-0.216 0.038-0.266 0.634-0.507 1.471-1.307 2.512-2.397 1.040-1.040 1.56-1.56 1.56-1.56 0.127-0.127 0.584-0.076 1.37 0.152 0.811 0.203 1.534 0.457 2.169 0.761 0.659 0.279 0.849 0.444 0.571 0.495-2.715 0.71-5.353 1.687-7.916 2.93l-0.076 0.038zM107.021 31.592c-3.12 0-5.683-0.609-7.687-1.827s-3.45-2.753-4.338-4.605c-0.888-1.877-1.332-3.856-1.332-5.936 0-2.512 0.609-4.693 1.827-6.545 1.243-1.877 2.879-3.298 4.909-4.262 2.055-0.989 4.275-1.484 6.659-1.484 1.167 0 2.384 0.114 3.653 0.343 1.269 0.203 2.296 0.457 3.082 0.761 0.203 0.127 0.329 0.241 0.381 0.342 0.076 0.101 0.114 0.279 0.114 0.533l0.266 5.099c0 0.076-0.063 0.114-0.19 0.114-0.101 0-0.177-0.038-0.228-0.114-0.938-1.928-2.144-3.412-3.615-4.452-1.446-1.066-3.095-1.598-4.947-1.598-2.41 0-4.262 0.875-5.556 2.626-1.269 1.751-1.903 4.211-1.903 7.383 0 2.283 0.394 4.414 1.18 6.393 0.812 1.979 1.903 3.552 3.273 4.719s2.879 1.75 4.528 1.75c2.613 0 5.048-1.928 7.306-5.784 0.051-0.076 0.114-0.114 0.19-0.114 0.152 0 0.228 0.076 0.228 0.228l-0.228 4.376c-0.051 0.33-0.101 0.545-0.152 0.647-0.051 0.076-0.19 0.152-0.419 0.228-2.232 0.786-4.567 1.18-7.002 1.18zM144.153 30.678c0.050 0 0.076 0.076 0.076 0.228s-0.026 0.228-0.076 0.228c-0.711 0-1.294-0.013-1.75-0.038l-2.854-0.038-2.74 0.038c-0.483 0.025-1.142 0.038-1.979 0.038-0.051 0-0.089-0.076-0.114-0.228 0-0.152 0.038-0.228 0.114-0.228 0.786 0 1.344-0.063 1.674-0.19 0.355-0.127 0.583-0.368 0.685-0.723s0.152-0.926 0.152-1.712v-8.752h-10.96v8.752c0 0.761 0.063 1.319 0.19 1.674 0.152 0.355 0.406 0.609 0.761 0.761 0.355 0.127 0.913 0.19 1.674 0.19 0.076 0 0.114 0.076 0.114 0.228s-0.038 0.228-0.114 0.228c-0.837 0-1.484-0.013-1.941-0.038l-2.816-0.038-2.626 0.038c-0.483 0.025-1.117 0.038-1.903 0.038-0.076 0-0.114-0.076-0.114-0.228s0.038-0.228 0.114-0.228c0.761 0 1.306-0.063 1.636-0.19 0.355-0.127 0.583-0.368 0.685-0.723 0.126-0.355 0.19-0.926 0.19-1.712v-17.619c0.025-1.066-0.127-1.763-0.457-2.093-0.33-0.355-1.015-0.533-2.055-0.533-0.076 0-0.114-0.076-0.114-0.228s0.038-0.228 0.114-0.228l1.827 0.038c1.116 0.051 2.017 0.076 2.702 0.076s1.61-0.025 2.778-0.076l1.941-0.038c0.050 0 0.076 0.076 0.076 0.228s-0.026 0.228-0.076 0.228c-0.761 0-1.32 0.076-1.674 0.228s-0.597 0.419-0.723 0.799c-0.102 0.355-0.165 0.913-0.19 1.674v7.725h10.921v-7.725c0-1.091-0.165-1.814-0.495-2.169-0.304-0.355-0.977-0.533-2.017-0.533-0.051 0-0.089-0.076-0.114-0.228 0-0.152 0.038-0.228 0.114-0.228l1.865 0.038c1.116 0.051 2.029 0.076 2.74 0.076 0.685 0 1.585-0.025 2.702-0.076l1.941-0.038c0.076 0 0.114 0.076 0.114 0.228s-0.038 0.228-0.114 0.228c-0.761 0-1.32 0.076-1.674 0.228-0.33 0.127-0.559 0.368-0.685 0.723s-0.216 0.913-0.266 1.674v17.619c0 0.736 0.076 1.294 0.228 1.674 0.177 0.355 0.457 0.609 0.837 0.761 0.381 0.127 0.938 0.19 1.674 0.19zM153.188 31.135c-0.076 0-0.114-0.076-0.114-0.228s0.026-0.228 0.076-0.228c1.065 0 1.84-0.063 2.321-0.19 0.508-0.127 0.85-0.368 1.027-0.723 0.178-0.381 0.266-0.951 0.266-1.712v-17.619c0.026-0.888-0.088-1.471-0.343-1.751-0.253-0.304-0.735-0.457-1.446-0.457h-0.495c-0.862 0-1.712 0.279-2.55 0.837-0.837 0.533-1.547 1.256-2.131 2.169-0.583 0.888-0.938 1.865-1.065 2.93 0 0.051-0.063 0.076-0.19 0.076-0.076 0-0.152-0.013-0.228-0.038-0.050-0.051-0.063-0.089-0.038-0.114 0.127-0.964 0.317-3.488 0.571-7.573 0-0.076 0.064-0.114 0.19-0.114 0.076 0 0.14 0.013 0.19 0.038 0.076 0.025 0.114 0.063 0.114 0.114 0 0.533 0.571 0.799 1.712 0.799 2.055 0.076 4.631 0.114 7.725 0.114 1.396 0 2.956-0.025 4.681-0.076l2.664-0.038c0.837 0 1.446-0.063 1.827-0.19s0.622-0.381 0.723-0.761c0.051-0.076 0.14-0.101 0.266-0.076 0.152 0 0.216 0.051 0.19 0.152-0.076 1.116-0.152 2.524-0.228 4.224-0.076 1.674-0.101 2.803-0.076 3.387 0 0.076-0.076 0.114-0.228 0.114-0.202 0-0.304-0.051-0.304-0.152 0-1.040-0.24-2.004-0.723-2.892-0.457-0.888-1.104-1.598-1.941-2.131-0.811-0.533-1.699-0.799-2.664-0.799h-0.495c-0.507 0-0.875 0.063-1.104 0.19-0.202 0.127-0.329 0.342-0.381 0.647-0.050 0.279-0.088 0.761-0.114 1.446l0.038 17.543c0 0.786 0.076 1.357 0.228 1.712 0.178 0.355 0.508 0.596 0.989 0.723s1.269 0.19 2.359 0.19c0.076 0 0.114 0.076 0.114 0.228s-0.038 0.228-0.114 0.228c-0.938 0-1.674-0.013-2.207-0.038l-3.463-0.038-3.273 0.038c-0.558 0.025-1.344 0.038-2.359 0.038z"></path>
</symbol>
</defs>
</svg>
